# xmcd
#
# Track frame offsets:
#	150
#	12848
#	25541
#	38764
#	51171
#	63178
#	75691
#	89383
#	102386
#	115021
#	126916
#	139916
#	153414
#	165599
#	178675
#	190754
#	204313
#	216686
#	229833
#	242828
#
# Disc length: 3409 seconds
#
# Revision: 1
# Processed by: cddbd v1.5.2PL0 Copyright (c) Steve Scherf et al.
# Submitted via: audiograbber 1.83.01
#
DISCID=0d0d4f14
DTITLE=Various (+ track dates) - The History Of Country and Western Music Vol. 10
DYEAR=2001
DGENRE=Country
TTITLE0=Hank Penny - Now Ain't You Glad Dear (1945)
TTITLE1=Jack Guthrie - Oklahoma Hills (1945)
TTITLE2=Wesley Tuttle - With Tears in my Eyes (1945)
TTITLE3=Shelley Lee Alley - Low down Blues (1945)
TTITLE4=Hank Penny - I'm Counting the Days (1945)
TTITLE5=Delmore Brothers - Hillbilly Boogie (1946)
TTITLE6=Armstrong Twins - Mandolin Boogie (1946)
TTITLE7=Hank Penny - Steel Guitar Stomp (1946)
TTITLE8=Delmore Brothers - Boogie Woogie Baby (1946)
TTITLE9=Merle Travis - Cincinnati Lou  (1946)
TTITLE10=Spade Cooley - Oklahoma Stomp (1946)
TTITLE11=Tex Williams - I Got Texasi in my Soul (1946)
TTITLE12=Spade Cooley - Three Way Boogie (1946)
TTITLE13=Jimmy Wyble - Huntin' Business All the Time  (1946)
TTITLE14=Jimmie Widener - I've Got the Hesitation Blues (1946)
TTITLE15=Ocie Stockard - O.P.A Blues (1946)
TTITLE16=Boots Woodall - Rattlesnakin' Daddy (1946)
TTITLE17=Jimmy Wyble - Taking My Time (1946)
TTITLE18=Jimmie Widener - I Hear You Knockin' (1946)
TTITLE19=Ocie Stockard - Nobody Cares (1946)
EXTD=YEAR: 2001 ID3G: 2\nTrack dates provided.
EXTT0=
EXTT1=
EXTT2=
EXTT3=
EXTT4=
EXTT5=
EXTT6=
EXTT7=
EXTT8=
EXTT9=
EXTT10=
EXTT11=
EXTT12=
EXTT13=
EXTT14=
EXTT15=
EXTT16=
EXTT17=
EXTT18=
EXTT19=
PLAYORDER=
